<?xml version="1.0" encoding="UTF-8" standalone="no"?>
<svg xmlns="http://www.w3.org/2000/svg" width="96px" height="96px" baseProfile="tiny" version="1.1" xmlns:xlink="http://www.w3.org/1999/xlink" viewBox="0 0 96 96">
 <defs>
  <linearGradient id="linearGradient3808" y2="4.0113" gradientUnits="userSpaceOnUse" x2="47.628" y1="90.915" x1="48.814">
   <stop stop-color="#0d6bb0" offset="0"/>
   <stop stop-color="#00a2ff" offset="1"/>
  </linearGradient>
  <filter id="filter3798">
   <feGaussianBlur id="feGaussianBlur3800" stdDeviation="0.86386905"/>
  </filter>
 </defs>
 <g id="PLACE_YOUR_GRAPHIC_HERE"></g>
 <g id="DO_NOT_EDIT_-_FOCAL_ZONE_GUIDELINE_ONLY"></g>
 <g id="g3003">
  <g id="g3826">
   <g id="g3006">
    <g id="g3853">
     <g id="g3787">
      <path id="LIGHT_BEVEL_2_" fill="url(#linearGradient3808)" d="m93.05,47.77c0,32.27-11.72,43.56-45.25,43.56s-45.25-11.29-45.25-43.56,11.73-43.56,45.25-43.56c33.53,0.00109,45.25,11.29,45.25,43.56z"/>
      <g id="XMLID_2_" transform="matrix(1.1994915,0,0,1.1627186,-44.939757,-15.609731)">
       <g id="g27" filter="url(#filter3798)" fill="#000">
        <path id="path29" fill="#000" d="m102.2,38.82c0.986,1.932-1.538,1.995-2.234,2.836-1.194,1.475-2.42,6.285-3.241,8.322-3.241,8.041-7.055,16.65-9.745,24.55h-2.836c-1.829-4.665-3.751-9.236-5.881-13.59-2.608,4.291-4.769,9.028-7.106,13.59h-2.836c-4.582-11.32-9.194-22.6-14.41-33.28-0.218-0.728-1.476-0.416-1.621-1.216v-1.423c4.031,0.343,8.488-0.021,12.17,0.208,0.437,2.119-1.797,1.579-2.223,2.836,3.002,8.623,6.909,16.35,10.14,24.76,1.912-2.42,2.992-5.662,4.467-8.519-1.579-3.73-3.387-8.759-5.278-12.99-0.603-1.351-1.423-3.304-2.234-3.854-0.924-0.644-2.233-0.104-2.836-1.226-0.167-2.016,2.067-1.06,3.241-1.008,3.304,0.146,8.187-0.291,10.96,0v1.008c-0.259,1.101-2.399,0.312-2.836,1.226,0.686,3.356,2.275,5.829,3.241,8.925,1.476-2.587,2.806-5.309,3.854-8.322-0.332-1.289-2.545-0.696-3.044-1.829v-0.603c1.236-1.257,3.782-0.499,5.891-0.405,1.632,0.073,3.211-0.218,4.457,0.197-0.062,2.358-2.202,1.631-3.449,2.441-3.47,2.254-3.771,8.021-6.285,11.36,1.693,4.259,3.667,8.239,5.277,12.58,3.231-7.792,6.587-15.45,9.122-23.94-0.811-0.945-3.23-0.28-2.628-2.639,2.391-0.258,5.601-0.061,7.907,0.002z"/>
       </g>
       <g id="g31" fill="#FFF"></g>
       <g id="g3014" fill="#FFF" transform="translate(3.2217045,0.69970442)">
        <path id="path3016" fill="#FFF" d="m102.2,38.82c0.986,1.932-1.538,1.995-2.234,2.836-1.194,1.475-2.42,6.285-3.241,8.322-3.241,8.041-7.055,16.65-9.745,24.55h-2.836c-1.829-4.665-3.751-9.236-5.881-13.59-2.608,4.291-4.769,9.028-7.106,13.59h-2.836c-4.582-11.32-9.194-22.6-14.41-33.28-0.218-0.728-1.476-0.416-1.621-1.216v-1.423c4.031,0.343,8.488-0.021,12.17,0.208,0.437,2.119-1.797,1.579-2.223,2.836,3.002,8.623,6.909,16.35,10.14,24.76,1.912-2.42,2.992-5.662,4.467-8.519-1.579-3.73-3.387-8.759-5.278-12.99-0.603-1.351-1.423-3.304-2.234-3.854-0.924-0.644-2.233-0.104-2.836-1.226-0.167-2.016,2.067-1.06,3.241-1.008,3.304,0.146,8.187-0.291,10.96,0v1.008c-0.259,1.101-2.399,0.312-2.836,1.226,0.686,3.356,2.275,5.829,3.241,8.925,1.476-2.587,2.806-5.309,3.854-8.322-0.332-1.289-2.545-0.696-3.044-1.829v-0.603c1.236-1.257,3.782-0.499,5.891-0.405,1.632,0.073,3.211-0.218,4.457,0.197-0.062,2.358-2.202,1.631-3.449,2.441-3.47,2.254-3.771,8.021-6.285,11.36,1.693,4.259,3.667,8.239,5.277,12.58,3.231-7.792,6.587-15.45,9.122-23.94-0.811-0.945-3.23-0.28-2.628-2.639,2.391-0.258,5.601-0.061,7.907,0.002z"/>
       </g>
      </g>
     </g>
    </g>
   </g>
  </g>
 </g>
</svg>