<?xml version="1.0" encoding="UTF-8" standalone="no"?>
<!-- Created with Inkscape (http://www.inkscape.org/) -->

<svg
   xmlns:dc="http://purl.org/dc/elements/1.1/"
   xmlns:cc="http://creativecommons.org/ns#"
   xmlns:rdf="http://www.w3.org/1999/02/22-rdf-syntax-ns#"
   xmlns:svg="http://www.w3.org/2000/svg"
   xmlns="http://www.w3.org/2000/svg"
   xmlns:sodipodi="http://sodipodi.sourceforge.net/DTD/sodipodi-0.dtd"
   xmlns:inkscape="http://www.inkscape.org/namespaces/inkscape"
   width="750"
   height="750"
   id="svg2"
   version="1.1"
   inkscape:version="0.48.0 r9654"
   sodipodi:docname="home.svg">
  <defs
     id="defs4" />
  <sodipodi:namedview
     id="base"
     pagecolor="#ffffff"
     bordercolor="#666666"
     borderopacity="1.0"
     inkscape:pageopacity="0.0"
     inkscape:pageshadow="2"
     inkscape:zoom="0.7"
     inkscape:cx="287.06114"
     inkscape:cy="378.33247"
     inkscape:document-units="px"
     inkscape:current-layer="layer1"
     showgrid="false"
     inkscape:window-width="1600"
     inkscape:window-height="920"
     inkscape:window-x="-8"
     inkscape:window-y="-8"
     inkscape:window-maximized="1" />
  <metadata
     id="metadata7">
    <rdf:RDF>
      <cc:Work
         rdf:about="">
        <dc:format>image/svg+xml</dc:format>
        <dc:type
           rdf:resource="http://purl.org/dc/dcmitype/StillImage" />
        <dc:title />
      </cc:Work>
    </rdf:RDF>
  </metadata>
  <g
     inkscape:label="Layer 1"
     inkscape:groupmode="layer"
     id="layer1"
     transform="translate(0,-302.36218)">
    <rect
       style="fill:#ffffff;fill-opacity:1;stroke:#000000;stroke-width:2;stroke-miterlimit:4;stroke-opacity:1;stroke-dasharray:none"
       id="rect2987"
       width="202.98459"
       height="278.25302"
       x="288.13968"
       y="748.2868"
       ry="9.2750988" />
    <path
       style="fill:#ffffff;fill-opacity:1;fill-rule:nonzero;stroke:#000000;stroke-opacity:1;stroke-width:2;stroke-miterlimit:4;stroke-dasharray:none"
       d="M 325.5 42 L 268.9375 83.3125 L 486.4375 83.3125 L 427.34375 42 L 325.5 42 z M 622.59375 178.5 L 622.59375 681.90625 C 622.59375 689.89018 616.14018 696.34375 608.15625 696.34375 L 142.53125 696.34375 C 134.54732 696.34375 128.125 689.89018 128.125 681.90625 L 128.125 186.1875 L 97.96875 208.21875 L 97.96875 710.125 C 97.96875 719.03653 105.15097 726.21875 114.0625 726.21875 L 633.78125 726.21875 C 642.69278 726.21875 649.875 719.03653 649.875 710.125 L 649.875 197.59375 L 622.59375 178.5 z "
       transform="translate(0,302.36218)"
       id="rect3757" />
    <g
       id="g3009"
       transform="matrix(1.4180434,0.10272986,-0.08992928,1.6198885,-62.005432,-217.53981)"
       style="stroke:#000000;stroke-opacity:1;stroke-width:1.32946656999999990;stroke-miterlimit:4;stroke-dasharray:none;fill:#ffffff">
      <path
         style="fill:#ffffff;fill-opacity:1;stroke:#000000;stroke-width:1.32946658000000010;stroke-miterlimit:4;stroke-opacity:1;stroke-dasharray:none"
         d="m 329.7688,309.57426 c -9.0443,0.45595 -17.32678,3.37134 -23.68099,8.4853 -4.48098,1.8233 -8.88274,4.26532 -13.06612,7.32985 l -190.56327,139.6016 c -21.993877,16.11145 -29.270275,43.15766 -16.317003,60.66467 12.953272,17.50701 41.082903,18.63178 63.076633,2.52033 l 185.38311,-135.80064 196.77719,104.6778 c 24.07057,12.80276 51.62158,7.58502 61.75668,-11.69093 10.13511,-19.27595 -1.08776,-45.0966 -25.15833,-57.89935 L 359.40949,316.53 c -9.77867,-5.20113 -20.11691,-7.43586 -29.64069,-6.95574 z"
         id="rect2989"
         inkscape:connector-curvature="0" />
    </g>
  </g>
</svg>
