<?xml version="1.0" encoding="UTF-8" standalone="no"?>
<!-- Created with Inkscape (http://www.inkscape.org/) -->

<svg
   xmlns:dc="http://purl.org/dc/elements/1.1/"
   xmlns:cc="http://creativecommons.org/ns#"
   xmlns:rdf="http://www.w3.org/1999/02/22-rdf-syntax-ns#"
   xmlns:svg="http://www.w3.org/2000/svg"
   xmlns="http://www.w3.org/2000/svg"
   xmlns:sodipodi="http://sodipodi.sourceforge.net/DTD/sodipodi-0.dtd"
   xmlns:inkscape="http://www.inkscape.org/namespaces/inkscape"
   width="600"
   height="600"
   id="svg2"
   version="1.1"
   inkscape:version="0.48.0 r9654"
   sodipodi:docname="imageloadon.png">
  <defs
     id="defs4" />
  <sodipodi:namedview
     id="base"
     pagecolor="#ffffff"
     bordercolor="#666666"
     borderopacity="1.0"
     inkscape:pageopacity="0.0"
     inkscape:pageshadow="2"
     inkscape:zoom="0.49497475"
     inkscape:cx="-305.64571"
     inkscape:cy="521.37944"
     inkscape:document-units="px"
     inkscape:current-layer="layer1"
     showgrid="false"
     inkscape:window-width="1600"
     inkscape:window-height="920"
     inkscape:window-x="-8"
     inkscape:window-y="-8"
     inkscape:window-maximized="1" />
  <metadata
     id="metadata7">
    <rdf:RDF>
      <cc:Work
         rdf:about="">
        <dc:format>image/svg+xml</dc:format>
        <dc:type
           rdf:resource="http://purl.org/dc/dcmitype/StillImage" />
        <dc:title></dc:title>
      </cc:Work>
    </rdf:RDF>
  </metadata>
  <g
     inkscape:label="Layer 1"
     inkscape:groupmode="layer"
     id="layer1"
     transform="translate(0,-452.36218)">
    <rect
       style="fill:#ffffff;fill-opacity:1;fill-rule:nonzero;stroke:none"
       id="rect2985"
       width="594.97986"
       height="594.97986"
       x="3.0304577"
       y="455.36203"
       ry="0" />
    <path
       style="fill:#666666;fill-opacity:1;fill-rule:nonzero;stroke:none"
       d="M 17.1875 17.15625 L 17.1875 382.53125 L 109.65625 221.21875 L 235.40625 437.46875 L 17.1875 438.15625 L 17.1875 583.84375 L 583.875 583.84375 L 583.875 17.15625 L 17.1875 17.15625 z "
       transform="translate(0,452.36218)"
       id="rect2987" />
    <rect
       style="fill:#ffffff;fill-opacity:1;fill-rule:nonzero;stroke:none"
       id="rect2989"
       width="568.71588"
       height="36.365494"
       x="16.162441"
       y="911.95099" />
    <rect
       y="972.56012"
       x="17.172594"
       height="36.365494"
       width="568.71588"
       id="rect2991"
       style="fill:#ffffff;fill-opacity:1;fill-rule:nonzero;stroke:none" />
    <path
       style="fill:#ffffff;fill-opacity:1;fill-rule:nonzero;stroke:none"
       d="m 376.73431,533.17468 -163.90625,284.0625 42.71875,73.5 327.71875,-0.0625 -206.53125,-357.5 z"
       id="path2995"
       inkscape:connector-curvature="0" />
    <path
       sodipodi:type="arc"
       style="fill:#ffffff;fill-opacity:1;fill-rule:nonzero;stroke:none"
       id="path3009"
       sodipodi:cx="159.09903"
       sodipodi:cy="103.00495"
       sodipodi:rx="42.931484"
       sodipodi:ry="42.426407"
       d="m 202.03051,103.00495 c 0,23.43146 -19.22108,42.42641 -42.93148,42.42641 -23.7104,0 -42.93148,-18.99495 -42.93148,-42.42641 0,-23.431456 19.22108,-42.426405 42.93148,-42.426405 23.7104,0 42.93148,18.994949 42.93148,42.426405 z"
       transform="translate(0,452.36218)" />
    <path
       sodipodi:type="arc"
       style="fill:#333333;fill-opacity:1;fill-rule:nonzero;stroke:none"
       id="path3024"
       sodipodi:cx="-465.68033"
       sodipodi:cy="182.80699"
       sodipodi:rx="170.71577"
       sodipodi:ry="150.51273"
       d="m -294.96455,182.80699 c 0,83.12588 -76.43206,150.51273 -170.71578,150.51273 -94.28372,0 -170.71577,-67.38685 -170.71577,-150.51273 0,-83.125882 76.43205,-150.512724 170.71577,-150.512724 94.28372,0 170.71578,67.386842 170.71578,150.512724 z"
       transform="matrix(0.87399166,0,0,0.99130596,849.14912,715.86783)" />
    <rect
       style="fill:#00ff00;fill-opacity:1;fill-rule:nonzero;stroke:none"
       id="rect2994"
       width="49.923168"
       height="206.34909"
       x="944.03314"
       y="224.00095"
       transform="matrix(0.71496882,0.69915634,-0.69915634,0.71496882,0,0)" />
    <rect
       y="-993.73492"
       x="389.4278"
       height="120.33162"
       width="42.468201"
       id="rect2996"
       style="fill:#00ff00;fill-opacity:1;fill-rule:nonzero;stroke:none"
       transform="matrix(-0.69982698,0.7143124,-0.71562458,-0.69848512,0,0)" />
  </g>
</svg>
